PathFileType	4	(X/Y/Z)	Kaydara																																																																																																																									
DataRate	CameraRate	NumFrames	NumMarkers	Units	OrigDataRate	OrigDataStartFrame	OrigNumFrames																																																																																																																					
30	30	4	41	mm	30	1	349																																																																																																																					
Frame#	Time	EMLA_LFHD			EMLA_RFHD			EMLA_LBHD			EMLA_RBHD			EMLA_LFTShould			EMLA_RFTShould			EMLA_LRRShould			EMLA_RRRShould			EMLA_T10			EMLA_STRN			EMLA_TRUN			EMLA_LSHO			EMLA_LUPA			EMLA_LELB			EMLA_LFRM			EMLA_LWRA			EMLA_LWRB			EMLA_LFIN			EMLA_RSHO			EMLA_RUPA			EMLA_RELB			EMLA_RFRM			EMLA_RWRA			EMLA_RWRB			EMLA_RFIN			EMLA_LFWT			EMLA_RFWT			EMLA_LBWT			EMLA_RBWT			EMLA_LTHI			EMLA_LKNE			EMLA_LSHN			EMLA_LANK			EMLA_LHEE			EMLA_LTOE			EMLA_RTHI			EMLA_RKNE			EMLA_RSHN			EMLA_RANK			EMLA_RHEE			EMLA_RTOE		
		X1	Y1	Z1	X2	Y2	Z2	X3	Y3	Z3	X4	Y4	Z4	X5	Y5	Z5	X6	Y6	Z6	X7	Y7	Z7	X8	Y8	Z8	X9	Y9	Z9	X10	Y10	Z10	X11	Y11	Z11	X12	Y12	Z12	X13	Y13	Z13	X14	Y14	Z14	X15	Y15	Z15	X16	Y16	Z16	X17	Y17	Z17	X18	Y18	Z18	X19	Y19	Z19	X20	Y20	Z20	X21	Y21	Z21	X22	Y22	Z22	X23	Y23	Z23	X24	Y24	Z24	X25	Y25	Z25	X26	Y26	Z26	X27	Y27	Z27	X28	Y28	Z28	X29	Y29	Z29	X30	Y30	Z30	X31	Y31	Z31	X32	Y32	Z32	X33	Y33	Z33	X34	Y34	Z34	X35	Y35	Z35	X36	Y36	Z36	X37	Y37	Z37	X38	Y38	Z38	X39	Y39	Z39	X40	Y40	Z40	X41	Y41	Z41
																																																																																																																												
1	0.01	237.52726	1638.00034	-1940.78033	66.18736	1627.63565	-1947.15897	255.56429	1637.20169	-2089.28986	61.70783	1628.11493	-2100.32227	246.82161	1412.31979	-1999.73846	96.79255	1400.78049	-1992.58957	236.86085	1452.89261	-2152.01416	77.49632	1440.42572	-2144.62234	171.72256	1275.20432	-2190.75806	173.41404	1341.97433	-1956.30249	171.34277	1239.31778	-1934.74091	371.61625	1432.31598	-2054.8526	424.92256	1246.22009	-2056.70212	435.1656	1100.8876	-2047.659	428.39745	966.38565	-2028.60382	336.58558	834.80461	-1939.42719	395.32768	807.75925	-1994.42184	385.73898	781.34621	-1929.26361	-29.90271	1425.57098	-2056.45706	-81.18205	1227.99904	-2039.95041	-89.26195	1083.70018	-2045.6395	-87.25544	982.37061	-2041.22986	-5.73903	833.06931	-1933.26462	-60.01746	807.53464	-1993.23135	-63.82721	781.5818	-1933.5611	278.08588	997.83424	-1958.33893	41.2364	983.72162	-1963.42163	249.26649	1015.27435	-2156.72806	73.98159	1016.66161	-2146.64505	300.1827	727.73743	-2137.50092	306.61396	523.34358	-2091.38474	281.36347	342.07664	-2075.5513	284.69807	163.79049	-2141.98242	218.7237	83.29624	-2197.63107	255.29163	74.41777	-1999.06586	49.41464	708.54988	-2151.70609	22.77226	509.81342	-2086.20331	71.3354	289.98928	-2076.51459	38.84192	127.54612	-2153.39523	95.19854	76.55587	-2207.73392	61.31695	71.76396	-2006.09344
2	0.043	237.42443	1637.95517	-1940.59814	66.20861	1627.7002	-1947.27936	255.81017	1636.45706	-2090.01083	61.86599	1628.08319	-2100.45288	247.0883	1411.92566	-1999.68384	95.92593	1400.32806	-1993.52798	237.00396	1452.68951	-2152.06482	77.65357	1440.28793	-2144.66644	171.8364	1275.06203	-2190.74448	173.35848	1341.80801	-1956.42212	170.51111	1239.24751	-1931.94016	371.76414	1431.86172	-2054.90234	424.66015	1245.68443	-2056.75461	434.55601	1100.24261	-2047.54181	427.75627	965.89622	-2028.72086	335.81558	834.27109	-1939.608	394.54941	807.19589	-1994.60648	384.81392	780.73952	-1929.41406	-29.83231	1425.37674	-2056.64215	-81.0009	1228.02452	-2040.4628	-89.07064	1083.51425	-2045.83099	-87.05114	982.22504	-2041.35849	-5.67283	832.79083	-1933.42834	-59.90491	807.3555	-1993.37814	-63.76435	781.408	-1933.69766	278.06461	997.82227	-1958.4996	41.20792	983.72475	-1963.43979	249.15751	1015.20416	-2156.84875	73.87245	1016.65733	-2146.64429	300.25007	727.71385	-2137.57858	306.60721	523.33611	-2091.37589	281.35405	342.07481	-2075.53619	284.66982	163.79623	-2141.95221	218.72292	83.30887	-2197.62192	255.30703	74.41603	-1999.07379	49.2727	708.5601	-2151.80542	22.82788	509.85062	-2086.15326	71.31274	289.98188	-2076.39832	38.81356	127.62904	-2153.45383	95.15317	76.5443	-2207.71637	61.33626	71.78878	-2006.0788
3	0.077	236.62876	1637.5412	-1939.75998	66.31669	1627.82867	-1947.35718	256.07786	1636.23398	-2090.47043	62.11508	1628.21381	-2100.46097	246.94077	1411.66	-1999.97131	96.62693	1400.29343	-1993.11447	237.11088	1452.49039	-2152.15363	77.78917	1440.21011	-2144.78119	171.84723	1274.88937	-2190.67459	173.50639	1341.68198	-1956.51093	170.39745	1239.14345	-1931.92886	371.86653	1431.30508	-2054.79187	424.46129	1245.08949	-2056.88126	434.03561	1099.65286	-2047.6506	427.31289	965.41573	-2029.09912	335.71388	833.61145	-1940.09125	394.29474	806.65443	-1995.22186	384.73114	780.07301	-1930.0914	-29.72696	1425.26169	-2056.78513	-80.83451	1227.80006	-2040.65872	-88.8289	1083.3564	-2046.02539	-86.84258	982.04948	-2041.54587	-5.51694	832.61421	-1933.6087	-59.70535	807.21893	-1993.58841	-63.61493	781.27548	-1933.94043	278.09624	997.94235	-1958.60931	41.34751	983.82225	-1963.32825	249.09229	1015.21927	-2156.89545	73.82143	1016.66695	-2146.62247	300.29753	727.74963	-2137.70203	306.6198	523.3429	-2091.50589	281.37526	342.10155	-2075.6073	284.65828	163.7676	-2141.98624	218.72545	83.29298	-2197.61337	255.31929	74.41607	-1999.07227	49.21318	708.58238	-2151.86005	22.79146	509.86004	-2086.0881	71.25261	290.05304	-2076.31363	38.80152	127.63844	-2153.44025	95.14917	76.53731	-2207.72888	61.32966	71.79581	-2006.08337
4	0.11	236.18229	1637.27386	-1939.28085	66.44011	1627.96234	-1947.44202	256.26715	1635.98877	-2090.46631	62.29987	1628.38287	-2100.44632	247.05919	1411.44501	-2000.15167	96.03004	1399.93851	-1993.88824	237.2682	1452.35138	-2152.24945	77.93486	1440.08026	-2144.8555	171.91252	1274.70718	-2190.62225	174.11678	1341.25488	-1956.30417	170.32642	1238.99574	-1932.04407	372.08397	1431.04202	-2055.16022	424.29016	1244.62234	-2057.04193	433.66951	1099.23119	-2047.84805	427.15565	965.06767	-2029.60999	335.8683	832.70058	-1940.85022	394.51805	806.12854	-1996.10764	385.09922	779.36974	-1931.06613	-29.62255	1425.17059	-2056.91254	-80.80381	1227.79335	-2040.88562	-88.7554	1083.26195	-2046.14655	-86.72518	981.96388	-2041.67877	-5.02267	832.64755	-1933.89038	-59.40953	807.11235	-1993.87817	-63.17546	781.13304	-1934.17633	278.08521	997.82852	-1958.66623	41.21409	983.65395	-1963.44513	249.05827	1015.19501	-2156.95068	73.81841	1016.6449	-2146.57837	300.38288	727.86491	-2137.8476	306.56727	523.31123	-2091.52542	281.37857	342.11353	-2075.63507	284.68653	163.78946	-2142.0256	218.70592	83.28771	-2197.62619	255.30884	74.43253	-1999.08783	49.06406	708.62495	-2151.81442	22.78273	509.83471	-2086.00952	71.41032	289.30384	-2077.74902	38.79904	127.59245	-2153.37082	95.14847	76.55028	-2207.71881	61.33107	71.79753	-2006.08002
